<svg width="526" height="297" viewBox="0 0 526 297" fill="none" xmlns="http://www.w3.org/2000/svg">
<path d="M525.013 164.793C524.891 121.755 505.997 79.4149 475.371 52.9005C472.406 50.3353 469.334 47.9231 466.154 45.664C446.041 31.3778 421.761 23.5867 394.96 25.7726C320.198 31.8674 312.356 1.27974 257.69 0.0790666C210.451 -0.957047 144.658 7.56143 83.2913 65.2933C73.0667 74.9528 63.5352 85.3206 54.7678 96.3198C-13.9774 182.165 31.4755 295.619 31.4755 295.619L83.3848 295.879H500C500 295.879 525.216 238.375 525.013 164.793Z" fill="#C5E1F9"/>
<path d="M466.154 45.6641V295.628L83.385 295.888L83.2915 65.3015C139.52 12.3947 199.464 0.814635 245.441 0.0446602C249.643 -0.0284773 253.728 -0.00816478 257.684 0.0791938C294.128 0.877611 309.762 14.7432 338.287 22.0895C352.549 25.7626 370.035 27.8064 394.954 25.7728C421.761 23.5868 446.033 31.378 466.154 45.6641Z" fill="#8CB7EA"/>
<path d="M338.285 22.0895L83.2832 249.222V135.195L245.441 0.0446602C249.642 -0.0284773 253.728 -0.00816478 257.683 0.0791938C294.134 0.877611 309.767 14.7432 338.285 22.0895Z" fill="#97C2F0"/>
<path d="M466.154 148.798V286.191L455.496 295.684L288.834 296.584L466.154 148.798Z" fill="#80AFE3"/>
<path d="M417.137 59.5032H144.483V295.887H417.137V59.5032Z" fill="#D4EBFF"/>
<path d="M205.069 59.5032H204.057V296.584H205.069V59.5032Z" fill="#C5E1F9"/>
<path d="M259.624 59.5032H258.612V296.584H259.624V59.5032Z" fill="#C5E1F9"/>
<path d="M308.725 59.5032H307.714V296.584H308.725V59.5032Z" fill="#C5E1F9"/>
<path d="M357.563 59.5032H356.551V296.584H357.563V59.5032Z" fill="#C5E1F9"/>
<path d="M84.6769 117.952V119.305C84.6769 119.305 85.0405 123.537 79.8823 124.155C74.7241 124.772 70.4943 124.693 70.6324 121.428C71.0977 118.899 71.9306 114.976 71.9652 112.884C71.9758 112.035 71.9146 111.188 71.7823 110.35L81.7778 110.147L84.7216 110.633L84.6769 117.952Z" fill="#FFB27D"/>
<path d="M84.7158 110.635L84.6772 117.948C82.9971 117.843 81.4693 117.68 80.2179 117.187C75.0373 115.137 71.9188 111.277 71.7766 110.346L81.7721 110.143L84.7158 110.635Z" fill="#E2915A"/>
<path d="M71.0102 108.725C72.1682 115.023 80.2235 114.82 83.7036 114.425C84.6828 114.316 85.3004 114.19 85.3004 114.19C86.4036 113.891 87.0192 112.134 87.3056 109.832C87.8745 105.277 87.1573 98.5912 86.3955 96.8806C85.2496 94.3086 83.0901 91.5253 74.9779 93.5325C66.8657 95.5397 69.521 100.647 71.0102 108.725Z" fill="#FFB27D"/>
<path d="M64.4258 295.394H75.8372C75.6386 293.994 75.3344 292.61 74.9271 291.256C74.754 290.687 74.538 290.132 74.2811 289.596C73.1718 287.361 66.1222 288.783 66.1222 288.783C66.1222 288.783 65.466 289.35 64.956 291.514C64.6693 292.79 64.4919 294.088 64.4258 295.394Z" fill="#233862"/>
<path d="M98.9083 291.755C98.9388 293.324 99.1338 294.803 99.6966 295.394H122.272C121.985 294.569 121.173 293.328 118.855 292.956C116.213 292.525 112.116 291.245 109.712 288.69C108.84 287.792 108.229 286.674 107.945 285.455C106.882 280.679 99.1623 286.918 99.1623 286.918C98.9775 288.524 98.8927 290.139 98.9083 291.755Z" fill="#233862"/>
<path d="M83.8927 240.12C84.1641 241.512 84.3533 242.919 84.4595 244.334C85.1766 258.474 96.2427 290.802 98.2215 291.556C101.283 292.722 106.106 290.242 108.629 289.429C109.676 289.092 110.381 288.027 110.149 286.946C104.664 261.501 102.654 224.859 101.921 203.165C101.551 192.237 99.6863 184.69 99.6863 184.69C99.6863 184.69 72.6986 177.417 72.5381 186.616C72.404 194.763 81.4913 226.693 83.8927 240.12Z" fill="#2B478B"/>
<path d="M83.8927 240.12L101.921 203.165C101.551 192.237 99.6863 184.69 99.6863 184.69C99.6863 184.69 72.6986 177.417 72.5381 186.616C72.404 194.763 81.4913 226.693 83.8927 240.12Z" fill="#233862"/>
<path d="M89.8982 186.653L75.6303 291.101C75.6303 291.101 69.3649 292.629 64.4911 291.408C64.4911 291.408 60.3141 235.856 60.6636 222.427C61.013 208.998 57.6649 186.49 61.4254 184.01C65.1859 181.529 89.8982 186.653 89.8982 186.653Z" fill="#2B478B"/>
<path d="M88.8846 90.8793C86.1978 90.5704 83.5739 89.8531 81.1036 88.7522C77.6864 87.2529 73.3733 88.9046 71.9756 89.6502C72.0249 89.345 72.1407 89.0544 72.3149 88.7989C72.3149 88.7989 71.6871 89.25 71.5957 89.8777C71.5307 89.9265 71.5002 89.961 71.5185 89.9712C71.5368 89.9813 70.8054 89.8391 70.3483 90.0484C70.3483 90.0484 70.6673 90.0016 70.7831 90.2089C70.7962 90.2309 70.8135 90.2502 70.8338 90.2658C65.5029 92.8682 65.0093 101.381 66.726 103.349C68.7901 105.718 71.2645 111.053 71.2645 111.053C71.2645 111.053 72.1666 109.793 71.7928 107.709C71.419 105.625 73.1986 105.623 75.4496 104.676C77.7006 103.729 75.8255 101.074 77.7941 99.4628C79.7627 97.8517 86.9891 98.8005 86.8956 97.5673C89.5794 96.58 88.8846 91.1576 88.8846 90.8793Z" fill="#233862"/>
<path d="M69.4094 123.243L72.6945 194.434C72.6945 194.434 100.111 194.887 99.3287 188.621C98.5466 182.356 89.447 125.423 89.447 125.423L69.4094 123.243Z" fill="#E9F3FE"/>
<path d="M59.6234 163.596C61.2487 168.539 58.1789 185.131 57.0819 190.742C56.8421 191.931 56.6756 192.632 56.6756 192.632C60.4787 198.879 74.3809 198.792 74.3809 198.792C77.0545 186.852 78.4441 167.836 78.4441 167.836L67.7782 120.595L54.3555 133.128C54.3555 133.128 55.3713 140.773 56.6268 148.552C57.6162 154.71 58.7376 160.975 59.6234 163.596Z" fill="#22407A"/>
<path d="M97.8478 124.258C97.8478 124.258 97.8478 124.27 97.8478 124.287C98.4959 124.923 116.799 142.872 120.344 149.901C123.954 157.032 103.845 171.233 103.845 171.233C103.845 171.233 102.551 171.751 101.653 171.548C102.6 179.432 103.664 186.707 103.034 189.814C101.895 195.427 96.7548 197.312 96.7548 196.88C96.7548 196.741 94.8756 176.484 93.8537 165.912C91.6656 143.248 86.1824 120.733 86.1824 120.733C92.1735 121.367 97.8478 124.258 97.8478 124.258ZM108.745 152.981C108.766 152.949 108.775 152.911 108.772 152.873C108.772 151.857 104.893 149.578 100.696 146.904L100.615 146.821C100.69 149.005 100.682 151.148 100.554 153.143C100.314 156.845 100.58 161.27 101.025 165.772C103.014 162.615 108.353 154.143 108.745 152.981Z" fill="#22407A"/>
<path d="M68.6335 120.51C68.601 119.831 71.7866 118.885 71.7866 118.885C71.7866 118.885 75.4333 123.99 81.4407 124.08C81.4407 124.08 79.7281 127.446 77.7107 128.315C77.7107 128.324 68.8326 124.545 68.6335 120.51Z" fill="#D9E9F9"/>
<path d="M81.4404 123.968C81.4404 123.968 84.6219 122.062 84.6341 119.996C84.6341 119.996 86.6901 119.736 87.588 120.744C87.588 120.744 88.3418 124.285 87.3402 126.341C87.3402 126.351 82.7569 125.636 81.4404 123.968Z" fill="#D9E9F9"/>
<path d="M79.2792 123.661L83.5963 122.617C83.5963 122.617 84.1591 122.666 84.1448 123.377C84.1306 124.088 82.9259 126.162 82.3977 126.327C81.8695 126.491 78.2593 125.098 79.2792 123.661Z" fill="#BA4C43"/>
<path d="M69.1374 120.161C69.1028 119.48 71.2584 118.08 71.2584 118.08C71.2584 118.08 75.4333 123.007 81.4407 123.096C81.4407 123.096 79.7281 126.461 77.7107 127.334C77.7107 127.334 69.3344 124.193 69.1374 120.161Z" fill="#E9F3FE"/>
<path d="M81.4404 123.101C81.4404 123.101 84.6585 121.376 84.6707 119.31C84.6707 119.31 86.6129 120.173 87.5149 121.181C87.5149 121.181 88.3458 123.415 87.3442 125.473C87.3402 125.469 82.7569 124.762 81.4404 123.101Z" fill="#E9F3FE"/>
<path d="M89.8779 172.204C89.7318 173.864 88.977 175.411 87.7589 176.548L85.8472 178.325C85.7342 178.431 85.6004 178.512 85.4544 178.562C85.3084 178.613 85.1534 178.633 84.9993 178.621C84.8452 178.608 84.6954 178.564 84.5594 178.49C84.4235 178.417 84.3044 178.315 84.2097 178.193L81.8409 175.146C81.2066 174.328 80.9073 173.299 81.0039 172.269C81.2273 169.969 81.6398 165.54 81.9689 161.266C82.237 157.812 82.4544 154.438 82.4707 152.392C82.5215 145.856 81.2395 125.016 81.2395 125.016L82.7896 125.097C82.7896 125.097 86.6497 133.187 88.6589 144.194C89.1844 147.031 89.5426 149.897 89.7316 152.776C89.7316 152.776 90.5402 164.687 89.8779 172.204Z" fill="#C65447"/>
<path d="M89.8779 172.204C89.7318 173.864 88.977 175.411 87.7589 176.547L85.8472 178.325C85.7342 178.431 85.6004 178.512 85.4544 178.562C85.3084 178.613 85.1534 178.633 84.9993 178.621C84.8452 178.608 84.6954 178.564 84.5594 178.49C84.4235 178.417 84.3044 178.315 84.2097 178.193L81.8409 175.146C81.2066 174.328 80.9073 173.299 81.0039 172.269C81.2273 169.969 81.6398 165.54 81.9689 161.266C86.2555 156.402 87.9926 149.686 88.6589 144.2C89.1844 147.037 89.5426 149.903 89.7316 152.782C89.7316 152.782 90.5402 164.687 89.8779 172.204Z" fill="#BA4C43"/>
<path d="M105.133 172.397C105.133 170.581 103.553 169.124 101.777 169.396C101.533 169.423 101.297 169.499 101.083 169.618C100.87 169.738 100.682 169.9 100.532 170.093C99.3126 171.737 98.1465 176.517 100.312 176.741C101.194 176.832 102.325 176.206 103.197 175.538C104.069 174.869 105.133 173.793 105.133 172.669V172.397Z" fill="#FFB27D"/>
<path d="M57.082 190.753C61.0132 186.62 67.8048 178.49 67.5651 171.816C67.2441 162.471 56.627 148.562 56.627 148.562C57.6163 154.72 58.7398 160.986 59.6236 163.596C61.2529 168.539 58.1791 185.123 57.082 190.753Z" fill="#233862"/>
<path d="M57.206 174.486C57.206 174.486 60.0319 175.908 61.7466 175.201C63.4613 174.494 65.4807 173.949 67.3985 176.156C69.3163 178.362 69.7206 179.89 69.3163 180.704C68.912 181.519 64.4405 181.214 63.701 180.704C62.9615 180.194 61.7852 178.941 61.0416 179.158C58.9877 179.768 57.2588 178.179 56.2897 176.924C55.7067 176.16 57.2811 175.79 57.206 174.486Z" fill="#FFB27D"/>
<path d="M67.7783 120.595C67.7783 120.595 56.5232 121.853 53.87 126.804C51.2167 131.755 37.414 151.821 37.8651 160.159C38.3161 168.496 56.6918 177.846 56.6918 177.846C56.6918 177.846 60.755 176.109 60.8221 174.242C60.8891 172.375 48.1185 161.201 48.8926 159.117C49.6666 157.032 63.7232 140.544 65.0783 135.107C66.4334 129.671 67.7783 120.595 67.7783 120.595Z" fill="#22407A"/>
<path d="M100.614 146.821L100.696 146.905C104.893 149.578 108.771 151.848 108.771 152.874C109.332 151.063 103.877 143.5 102.112 141.962C100.32 140.393 100.614 146.821 100.614 146.821Z" fill="#233862"/>
<path d="M71.2581 118.08C71.2581 118.08 79.8029 154.229 78.4438 167.854C78.4438 167.854 75.3009 153.302 67.7414 141.385C67.7414 141.385 70.5003 138.933 70.3499 138.029C70.3499 138.029 68.3041 137.419 66.3152 137.825C66.3152 137.825 66.5366 122.243 67.7739 120.597C69.0111 118.952 71.2581 118.08 71.2581 118.08Z" fill="#233862"/>
<path d="M84.6708 119.305C84.5327 119.169 93.1385 154.631 93.8597 165.918C93.8597 165.918 93.0044 145.773 93.0877 139.969C93.0877 139.969 90.1379 137.937 90.1379 137.273C90.1379 136.608 93.3254 134.938 93.3254 134.938C93.3254 134.938 90.9281 122.531 89.6198 121.164C88.3115 119.797 84.6708 119.305 84.6708 119.305Z" fill="#233862"/>
<path d="M417.135 59.5032H401.153V295.887H417.135V59.5032Z" fill="#5F9CCE"/>
<path d="M160.465 59.5032H144.483V295.887H160.465V59.5032Z" fill="#5F9CCE"/>
<path d="M307.854 17.9573H257.667C253.933 17.9573 250.906 20.9843 250.906 24.7184V33.9337C250.906 37.6678 253.933 40.6949 257.667 40.6949H307.854C311.588 40.6949 314.615 37.6678 314.615 33.9337V24.7184C314.615 20.9843 311.588 17.9573 307.854 17.9573Z" fill="#D4EBFF"/>
<path d="M418.46 53.8394H144.483V59.5034H418.46V53.8394Z" fill="#73A8DD"/>
<path d="M144.483 295.625L144.483 53.8372H138.819L138.819 295.625H144.483Z" fill="#73A8DD"/>
<path d="M422.801 295.628V53.8394H417.137V295.628H422.801Z" fill="#73A8DD"/>
<path d="M265.407 28.3773C265.426 27.9926 265.504 27.6131 265.637 27.2518C265.763 26.9078 265.961 26.5948 266.218 26.3335C266.492 26.0627 266.819 25.8517 267.179 25.7139C268.06 25.4105 269.018 25.4105 269.899 25.7139C270.26 25.8455 270.588 26.0534 270.86 26.3233C271.116 26.5867 271.316 26.8991 271.447 27.2416C271.585 27.604 271.664 27.986 271.681 28.3732C271.681 28.5073 271.693 28.6576 271.697 28.8202C271.701 28.9827 271.697 29.1534 271.697 29.3281C271.697 29.5028 271.697 29.6714 271.697 29.8339C271.697 29.9965 271.697 30.1468 271.681 30.2829C271.663 30.6677 271.586 31.0473 271.451 31.4084C271.325 31.7518 271.127 32.0642 270.87 32.3247C270.597 32.5951 270.267 32.803 269.905 32.9342C269.021 33.2348 268.063 33.2348 267.179 32.9342C266.819 32.802 266.491 32.5941 266.218 32.3247C265.961 32.0642 265.763 31.7518 265.637 31.4084C265.504 31.0471 265.427 30.6676 265.407 30.2829C265.407 30.1468 265.395 29.9985 265.391 29.8339C265.387 29.6694 265.391 29.5028 265.391 29.3281C265.391 29.1534 265.391 28.9847 265.391 28.8202C265.391 28.6556 265.401 28.5114 265.407 28.3773ZM270.241 28.4301C270.241 27.9802 270.062 27.5487 269.744 27.2306C269.426 26.9125 268.994 26.7337 268.544 26.7337C268.094 26.7337 267.663 26.9125 267.345 27.2306C267.027 27.5487 266.848 27.9802 266.848 28.4301C266.834 28.7003 266.828 29.001 266.828 29.3321C266.828 29.6633 266.828 29.9619 266.848 30.2321C266.848 30.4526 266.892 30.6708 266.977 30.8741C267.062 31.0774 267.187 31.2618 267.344 31.4166C267.686 31.6865 268.109 31.8333 268.544 31.8333C268.98 31.8333 269.403 31.6865 269.745 31.4166C269.902 31.2621 270.027 31.0777 270.112 30.8744C270.197 30.671 270.241 30.4526 270.241 30.2321C270.255 29.9619 270.263 29.6613 270.263 29.3321C270.263 29.003 270.255 28.7003 270.241 28.4281V28.4301Z" fill="#233862"/>
<path d="M277.934 25.5837C278.01 25.5848 278.083 25.6156 278.136 25.6695C278.19 25.7235 278.22 25.7962 278.221 25.8722V26.63C278.22 26.7057 278.189 26.7779 278.136 26.8314C278.082 26.8849 278.01 26.9154 277.934 26.9165H274.529V28.9867H277.721C277.797 28.9877 277.87 29.0185 277.923 29.0725C277.977 29.1264 278.007 29.1992 278.007 29.2752V30.0329C278.008 30.0708 278 30.1083 277.986 30.1432C277.971 30.1782 277.949 30.2097 277.922 30.2361C277.896 30.2636 277.864 30.2854 277.83 30.3001C277.795 30.3147 277.757 30.322 277.719 30.3214H274.527V32.7593C274.527 32.8357 274.496 32.9088 274.442 32.9627C274.388 33.0167 274.315 33.0473 274.239 33.0478H273.375C273.338 33.0481 273.3 33.0406 273.265 33.026C273.23 33.0113 273.199 32.9897 273.172 32.9625C273.145 32.9363 273.123 32.9047 273.108 32.8698C273.094 32.8348 273.086 32.7972 273.087 32.7593V25.8804C273.086 25.8424 273.094 25.8049 273.108 25.7699C273.123 25.7349 273.145 25.7034 273.172 25.6772C273.199 25.65 273.23 25.6284 273.265 25.6137C273.3 25.5991 273.338 25.5916 273.375 25.5919L277.934 25.5837Z" fill="#233862"/>
<path d="M284.303 25.5837C284.379 25.5848 284.452 25.6156 284.506 25.6695C284.559 25.7235 284.589 25.7962 284.59 25.8722V26.63C284.589 26.7057 284.558 26.7779 284.505 26.8314C284.451 26.8849 284.379 26.9154 284.303 26.9165H280.899V28.9867H284.09C284.166 28.9877 284.239 29.0185 284.292 29.0725C284.346 29.1264 284.376 29.1992 284.377 29.2752V30.0329C284.377 30.0708 284.369 30.1083 284.355 30.1432C284.34 30.1782 284.318 30.2097 284.291 30.2361C284.265 30.2636 284.234 30.2854 284.199 30.3001C284.164 30.3147 284.126 30.322 284.088 30.3214H280.896V32.7593C280.896 32.8353 280.866 32.9081 280.812 32.962C280.759 33.016 280.686 33.0468 280.61 33.0478H279.745C279.707 33.0481 279.669 33.0406 279.634 33.026C279.599 33.0113 279.568 32.9897 279.541 32.9625C279.514 32.9363 279.492 32.9047 279.478 32.8698C279.463 32.8348 279.456 32.7972 279.456 32.7593V25.8804C279.456 25.8424 279.463 25.8049 279.478 25.7699C279.492 25.7349 279.514 25.7034 279.541 25.6772C279.568 25.65 279.599 25.6284 279.634 25.6137C279.669 25.5991 279.707 25.5916 279.745 25.5919L284.303 25.5837Z" fill="#233862"/>
<path d="M286.116 33.0602C286.078 33.0608 286.04 33.0535 286.005 33.0389C285.97 33.0242 285.939 33.0024 285.913 32.9749C285.885 32.949 285.863 32.9175 285.848 32.8825C285.833 32.8475 285.826 32.8097 285.827 32.7717V25.8806C285.826 25.8426 285.833 25.8048 285.848 25.7698C285.863 25.7348 285.885 25.7033 285.913 25.6774C285.939 25.6499 285.97 25.6281 286.005 25.6134C286.04 25.5987 286.078 25.5915 286.116 25.5921H286.981C287.019 25.5915 287.057 25.5987 287.092 25.6134C287.127 25.6281 287.158 25.6499 287.184 25.6774C287.212 25.7035 287.234 25.735 287.249 25.7699C287.264 25.8049 287.272 25.8425 287.272 25.8806V32.7717C287.272 32.8098 287.264 32.8474 287.249 32.8824C287.234 32.9173 287.212 32.9488 287.184 32.9749C287.158 33.0024 287.127 33.0242 287.092 33.0389C287.057 33.0535 287.019 33.0608 286.981 33.0602H286.116Z" fill="#233862"/>
<path d="M293.521 30.6912C293.53 30.6115 293.57 30.5385 293.632 30.488C293.69 30.4419 293.762 30.4175 293.836 30.419H294.699C294.774 30.4198 294.846 30.448 294.902 30.4982C294.931 30.5228 294.954 30.5543 294.968 30.5898C294.981 30.6252 294.986 30.6636 294.981 30.7014C294.959 31.0034 294.885 31.2993 294.764 31.577C294.632 31.8781 294.438 32.1475 294.193 32.3673C293.909 32.6183 293.579 32.8134 293.222 32.9422C292.766 33.1034 292.284 33.1798 291.8 33.1677C291.357 33.1759 290.916 33.1015 290.5 32.9483C290.141 32.8135 289.814 32.606 289.539 32.3388C289.273 32.073 289.066 31.7547 288.929 31.4043C288.78 31.0259 288.691 30.6261 288.667 30.2199C288.653 29.9497 288.647 29.651 288.647 29.3239C288.647 28.9969 288.647 28.6982 288.667 28.428C288.691 28.0218 288.78 27.622 288.929 27.2436C289.065 26.8935 289.273 26.5758 289.539 26.3111C289.813 26.0434 290.141 25.8358 290.5 25.7016C290.916 25.5484 291.357 25.474 291.8 25.4822C292.284 25.4701 292.766 25.5466 293.222 25.7077C293.579 25.8365 293.909 26.0316 294.193 26.2826C294.439 26.5038 294.633 26.7755 294.764 27.079C294.884 27.355 294.957 27.6488 294.981 27.9486C294.986 27.9863 294.981 28.0247 294.968 28.0601C294.954 28.0956 294.931 28.1271 294.902 28.1517C294.846 28.2019 294.774 28.2301 294.699 28.2309H293.836C293.762 28.2304 293.691 28.2061 293.632 28.1619C293.601 28.1375 293.574 28.107 293.554 28.0721C293.534 28.0372 293.521 27.9986 293.517 27.9587C293.493 27.8117 293.442 27.6704 293.366 27.5422C293.283 27.4027 293.175 27.2795 293.047 27.1786C292.892 27.0627 292.719 26.9747 292.533 26.9185C292.298 26.8468 292.054 26.8125 291.808 26.817C291.56 26.8118 291.314 26.8553 291.083 26.9449C290.889 27.0223 290.714 27.1384 290.567 27.2862C290.425 27.4323 290.315 27.6068 290.246 27.7982C290.17 28.0003 290.125 28.2126 290.112 28.428C290.098 28.6982 290.091 28.9969 290.091 29.3239C290.091 29.651 290.091 29.9497 290.112 30.2199C290.124 30.4374 290.169 30.6518 290.246 30.8558C290.317 31.0449 290.426 31.2171 290.567 31.3616C290.714 31.5094 290.889 31.6256 291.083 31.7029C291.314 31.7926 291.56 31.8361 291.808 31.8309C292.054 31.8363 292.299 31.802 292.533 31.7293C292.72 31.6727 292.895 31.5847 293.051 31.4693C293.183 31.3707 293.293 31.2471 293.377 31.1056C293.45 30.9778 293.499 30.8372 293.521 30.6912Z" fill="#233862"/>
<path d="M301.203 31.7275C301.24 31.7272 301.278 31.7347 301.313 31.7493C301.348 31.764 301.379 31.7856 301.406 31.8128C301.433 31.8389 301.455 31.8705 301.47 31.9054C301.484 31.9404 301.492 31.978 301.491 32.0159V32.7737C301.491 32.8116 301.484 32.8492 301.469 32.8842C301.455 32.9191 301.433 32.9507 301.406 32.9769C301.379 33.0041 301.348 33.0257 301.313 33.0404C301.278 33.055 301.24 33.0625 301.203 33.0622H296.518C296.442 33.0612 296.369 33.0304 296.316 32.9764C296.262 32.9225 296.232 32.8497 296.231 32.7737V25.8805C296.232 25.8045 296.262 25.7318 296.316 25.6778C296.369 25.6239 296.442 25.5931 296.518 25.592H301.117C301.155 25.5918 301.193 25.5992 301.228 25.6139C301.262 25.6286 301.294 25.6502 301.32 25.6774C301.348 25.7036 301.369 25.7351 301.384 25.7701C301.399 25.805 301.406 25.8426 301.406 25.8805V26.6383C301.406 26.6762 301.399 26.7139 301.384 26.7488C301.37 26.7838 301.348 26.8154 301.32 26.8415C301.294 26.8687 301.262 26.8903 301.228 26.9049C301.193 26.9196 301.155 26.927 301.117 26.9268H297.663V28.6313H300.873C300.949 28.6329 301.022 28.6638 301.076 28.7175C301.129 28.7713 301.16 28.8438 301.162 28.9198V29.6776C301.161 29.7539 301.131 29.827 301.077 29.881C301.023 29.935 300.95 29.9655 300.873 29.9661H297.663V31.7376L301.203 31.7275Z" fill="#233862"/>
<path d="M323.836 278.27L326.108 287.934L329.511 287.914L329.637 278.27H323.836Z" fill="#E49963"/>
<path d="M352.459 278.68L358.924 287.934L361.443 284.667L357.553 277.408L352.459 278.68Z" fill="#E49963"/>
<path d="M335.654 151.262C334.48 150.588 333.072 150.515 332.087 150.574C332.303 150.391 332.563 150.267 332.841 150.212C332.231 150.121 330.866 150.732 330.866 150.732C322.372 147.427 321.037 160.059 321.216 162.995C321.395 165.93 318.372 166.887 313.943 169.199C305.512 173.612 304.77 179.52 304.77 179.52C304.837 179.558 304.904 179.603 304.973 179.654C305.392 178.939 306.253 177.594 306.98 177.391C306.541 178.328 306.152 179.288 305.812 180.265C308.299 182.177 312.951 186.411 316.196 189.408C316.181 188.82 316.196 187.985 316.415 187.547L316.821 189.985C318.556 191.596 319.753 192.729 319.753 192.729C319.538 190.358 330.372 177.842 336.024 174.093C337.399 172.048 337.889 168.433 337.926 168.149C337.688 171.016 337.202 172.618 336.77 173.529C341.554 169.083 338.769 153.05 335.654 151.262Z" fill="#163560"/>
<path d="M335.689 174.297C335.717 174.309 332.96 175.755 330.886 175.182C328.936 174.646 327.66 172.09 327.688 172.084C328.513 171.92 328.753 170.772 328.735 165.845L329.109 165.918L335.388 167.174C335.388 167.174 335.246 169.171 335.24 171.052C335.238 172.621 335.331 174.118 335.689 174.297Z" fill="#E49963"/>
<path d="M328.588 153.331C328.588 153.331 331.685 149.999 335.575 153.16C335.575 153.168 333.312 152.762 328.588 153.331Z" fill="#E58638"/>
<path d="M335.388 167.163C335.388 167.163 335.246 169.161 335.24 171.042C331.727 170.94 329.868 167.704 329.109 165.908L335.388 167.163Z" fill="#D68D5D"/>
<path d="M328.458 165.217C328.458 165.217 326.618 162.278 326.175 159.765C325.86 157.971 326.764 151.319 333.381 152.278C334.715 152.465 335.989 152.951 337.109 153.7C338.547 154.679 340.619 156.796 338.301 162.599L337.692 164.559L328.458 165.217Z" fill="#163560"/>
<path d="M360.417 282.13L357.09 282.233L353.486 282.345C353.486 282.345 345.156 272.983 340.496 257.98C340.386 257.631 340.272 257.277 340.15 256.922C337.594 249.405 332.298 239.95 329.507 231.401C329.062 230.037 328.664 228.76 328.306 227.541C328.189 227.153 328.078 226.771 327.973 226.395C325.917 219.175 325.32 214.435 324.771 209.372L344.926 209.535C344.926 209.535 348.181 244.118 360.417 282.13Z" fill="#2B478B"/>
<path d="M342.104 197.837C342.054 207.525 343.512 211.682 343.512 211.682C343.512 211.682 334.882 216.111 324.618 212.85C324.499 212.811 317.083 211.103 317.083 211.103C317.256 210.711 318.997 204.165 319.166 203.805C321.331 199.108 321.807 196.845 322.059 195.401C322.499 192.715 322.583 189.982 322.309 187.274C321.902 182.954 321.069 178.684 319.822 174.528C322.615 173.886 325.232 172.759 328.141 171.655C328.812 172.498 330.855 173.378 332.631 173.338C334.663 173.293 335.335 172.409 335.229 171.444C337.407 172.663 339.144 173.825 339.144 173.825C340.995 177.076 344.747 180.225 345.02 185.202C345.093 186.437 342.106 197.566 342.104 197.837Z" fill="#A8D29F"/>
<path d="M336.562 168.945C336.562 168.945 328.247 169.083 328.233 163.852C328.219 158.621 327.15 155.116 332.459 154.805C337.767 154.495 338.801 156.492 339.224 158.237C339.646 159.982 338.724 168.775 336.562 168.945Z" fill="#E49963"/>
<path d="M336.254 154.678C336.254 154.678 333.978 160.815 330.484 161.723C326.989 162.631 325.474 161.684 325.474 161.684C325.474 161.684 326.998 159.234 327.554 155.48C327.554 155.48 334.537 151.756 336.254 154.678Z" fill="#163560"/>
<path d="M335.689 155.175C335.689 155.175 337.389 156.546 337.804 157.879C338.218 159.212 338.413 161.942 339.198 161.859C339.198 161.859 340.912 157.688 338.994 155.327C336.94 152.827 335.689 155.175 335.689 155.175Z" fill="#163560"/>
<path d="M325.994 287.394C326.135 288.731 325.987 290.082 325.561 291.357C325.561 291.357 325.003 293.919 327.504 293.968C330.004 294.017 330.616 293.777 330.332 292.204C330.047 290.632 329.519 287.914 329.519 287.914L325.994 287.394Z" fill="#E49963"/>
<path d="M330.589 295.176C330.589 295.176 330.537 295.209 330.431 295.26H325.486C325.438 295.235 325.391 295.207 325.346 295.176C325.059 293.89 325.527 291.469 325.527 291.469C328.389 294.09 330.181 291.404 330.181 291.404C330.644 292.535 330.589 295.176 330.589 295.176Z" fill="#82B378"/>
<path d="M367.467 292.663C367.467 292.663 362.859 287.296 361.443 284.667L358.018 286.439L365.677 293.706L367.469 293.466L367.467 292.663Z" fill="#E49963"/>
<path d="M370.325 295.349H364.027C363.418 294.89 362.853 293.829 362.148 292.405C361.774 291.645 360.929 291.227 360.062 290.997V295.3H358.753L357.516 290.725C356.703 289.212 357.451 287.838 358.026 286.642C358.692 286.642 360.488 287.103 363.893 290.977C365.013 292.249 366.248 292.704 367.475 292.663C367.49 292.675 367.506 292.684 367.524 292.692C369.572 293.624 370.157 294.782 370.325 295.349Z" fill="#82B378"/>
<path d="M335.238 171.452C335.238 171.452 340.049 183.457 340.191 185.876C340.333 188.296 340.756 225.602 340.756 225.602C340.756 225.602 340.473 227.317 343.728 226.602C346.982 225.887 347.83 225.18 347.83 225.18C347.83 225.18 344.717 202.172 345.566 194.169C346.416 186.167 339.065 173.116 339.065 173.116L335.238 171.452Z" fill="#2B478B"/>
<path d="M357.09 282.233L353.486 282.345C353.486 282.345 345.156 272.983 340.496 257.98C340.386 257.631 340.272 257.277 340.15 256.922C337.595 249.405 332.298 239.95 329.507 231.401C329.062 230.037 328.664 228.76 328.306 227.541C328.19 227.153 328.079 226.771 327.973 226.395L330.941 224.119C330.941 224.119 339.852 238.696 342.611 252.413C345.008 264.331 354.605 278.668 357.09 282.233Z" fill="#233862"/>
<path d="M395.576 296.06H395.326C395.229 296.06 395.133 296.037 395.046 295.994C394.959 295.951 394.883 295.89 394.823 295.813C394.763 295.737 394.72 295.648 394.699 295.554C394.678 295.459 394.678 295.361 394.7 295.266L425.678 158.17H430.054L396.149 295.603C396.118 295.732 396.045 295.848 395.941 295.93C395.837 296.013 395.709 296.059 395.576 296.06Z" fill="#B27F5D"/>
<path d="M337.729 296.06H337.473C337.375 296.06 337.28 296.037 337.193 295.994C337.106 295.951 337.029 295.89 336.969 295.813C336.909 295.737 336.867 295.648 336.846 295.554C336.825 295.459 336.825 295.361 336.847 295.266L367.823 158.17H372.213L338.31 295.603C338.278 295.734 338.204 295.85 338.098 295.933C337.993 296.015 337.863 296.06 337.729 296.06Z" fill="#B27F5D"/>
<path d="M390.885 295.441L370.791 158.17H375.764L392.177 295.416C392.185 295.497 392.176 295.578 392.151 295.654C392.126 295.731 392.085 295.801 392.032 295.862C391.978 295.922 391.913 295.97 391.84 296.004C391.766 296.038 391.687 296.056 391.606 296.058C391.431 296.062 391.261 296.002 391.128 295.888C390.995 295.774 390.908 295.615 390.885 295.441Z" fill="#C6916D"/>
<path d="M370.79 158.17L369.421 164.391L390.072 295.101C390.111 295.371 390.247 295.616 390.454 295.792C390.662 295.969 390.926 296.063 391.198 296.058H391.604L370.79 158.17Z" fill="#916140"/>
<path d="M445.783 295.441L426.28 158.17H430.656L447.069 295.416C447.077 295.497 447.068 295.578 447.043 295.654C447.017 295.731 446.977 295.801 446.923 295.862C446.87 295.922 446.804 295.97 446.731 296.004C446.658 296.038 446.579 296.056 446.498 296.058C446.324 296.061 446.155 296 446.023 295.886C445.891 295.772 445.806 295.614 445.783 295.441Z" fill="#C6916D"/>
<path d="M426.283 158.17L424.317 164.391L444.966 295.101C445.006 295.371 445.142 295.616 445.35 295.792C445.557 295.968 445.822 296.063 446.094 296.058H446.5L426.283 158.17Z" fill="#916140"/>
<path d="M432.596 210.207H377.54L377.834 206.873H432.89L432.596 210.207Z" fill="#916140"/>
<path d="M353.079 240.1H350.406L368.918 158.17H370.789L353.079 240.1Z" fill="#B27F5D"/>
<path d="M411.337 240.1H348.738L367.477 158.17H430.674L411.337 240.1Z" fill="#E5BD9E"/>
<path d="M408.989 234.997H351.799L368.92 160.146H426.655L408.989 234.997Z" fill="#E9F3FE"/>
<path d="M331.252 253.693C331.303 260.363 330.967 275.7 330.108 282.048H326.908C325.145 282.048 324.267 282.022 324.267 282.022C322.11 270.984 320.576 261.85 319.458 253.986C318.54 247.528 317.725 242 317.1 237.223C316.468 232.425 316.029 228.408 315.881 225.015C315.856 224.482 315.839 223.962 315.828 223.455C315.828 222.949 315.816 222.456 315.828 221.976L333.243 220.261C333.003 231.941 331.223 249.815 331.252 253.693Z" fill="#2B478B"/>
<path d="M326.908 282.048C325.145 282.048 324.267 282.022 324.267 282.022C322.109 270.984 320.576 261.85 319.458 253.986C318.54 247.527 317.725 241.999 317.1 237.223C316.468 232.424 316.029 228.408 315.881 225.015L322.272 228.81C322.272 228.81 318.193 230.265 319.749 241.268C321.305 252.271 324.751 280.49 326.908 282.048Z" fill="#233862"/>
<path d="M327.739 224.898C327.739 224.898 326.52 229.367 322.268 228.804C318.016 228.242 311.988 225.659 311.988 225.659C311.988 225.659 313.802 219.871 316.051 212.265C318.782 203.058 322.16 191.189 323.753 183.703C324.137 182.019 324.427 180.314 324.621 178.598L328.141 171.69C328.141 171.69 333.391 183.591 333.674 186.592C333.956 189.593 327.739 224.898 327.739 224.898Z" fill="#2B478B"/>
<path d="M323.501 186.153L328.147 171.698C328.135 171.698 322.278 173.457 319.332 174.961C319.332 174.961 317.49 177.36 316.352 182.884C316.352 182.884 315.147 196.167 317.835 201.026C317.835 201.026 326.323 202.741 339.904 198.023V194.881C339.904 194.881 325.051 195.667 322.008 196.024L323.501 186.153Z" fill="#E49963"/>
<path d="M327.55 192.887C327.361 197.747 326.23 207.178 316.139 212.226C316.11 212.24 316.084 212.255 316.057 212.265C318.788 203.058 322.166 191.189 323.759 183.703C325.614 186.5 327.654 190.212 327.55 192.887Z" fill="#233862"/>
<path d="M328.147 171.698C328.147 171.698 319.534 172.307 317.457 176.98C315.381 181.653 314.723 197.176 317.364 201.749C317.364 201.749 321 202.796 327.43 201.581L327.668 201.536C327.668 201.536 329.72 196.457 327.871 195.462C327.871 195.462 322.449 195.748 323.016 193.938C323.582 192.128 328.147 171.698 328.147 171.698Z" fill="#2B478B"/>
<path d="M338.382 195.726C338.382 195.726 339.565 194.275 339.817 192.796C340.069 191.317 340.853 190.22 342.897 189.952C344.94 189.684 345.816 189.651 345.812 190.232C345.808 190.813 344.142 194.875 341.213 197.3C338.283 199.726 338.382 195.726 338.382 195.726Z" fill="#E49963"/>
<path d="M177.611 209.063L176.518 214.819C180.67 216.934 190.954 217.033 190.954 217.033L191.07 214.985C191.07 214.985 178.041 209.896 177.611 209.063Z" fill="#F4A269"/>
<path d="M189.989 214.666C189.989 214.666 194.54 214.612 194.997 214.918C195.454 215.225 197.768 218.238 197.394 218.687C197.02 219.136 195.822 219.296 194.623 218.622C193.424 217.947 190.698 217.236 190.318 216.501C189.938 215.766 189.989 214.666 189.989 214.666Z" fill="#FFB27D"/>
<path d="M174.488 169.654C174.488 169.654 174.167 165.54 168.31 166.607C166.762 166.889 165.697 164.1 163.162 165.093C157.703 167.235 157.382 164.409 155.803 168.374C155.143 170.034 150.944 171.968 152.228 174.837C153.512 177.705 151.364 179.635 152.872 181.882C153.652 183.047 153.335 185.133 157.014 185.2C158.843 185.237 161.703 188.668 163.761 189.292C165.819 189.915 171.995 189.015 171.764 186.165C171.581 183.93 174.149 184.133 175.727 181.568C177.107 179.333 174.644 178.77 175.961 175.156C176.926 172.511 174.413 171.859 174.488 169.654Z" fill="#1C468A"/>
<path d="M206.691 270.854C206.565 272.23 208.46 272.565 210.658 272.683C212.857 272.801 212.19 273.248 215.201 273.798C218.212 274.349 219.417 273.518 219.636 273.107C219.839 272.742 218.429 272.173 216.938 271.527C216.751 271.448 216.562 271.364 216.375 271.281C214.695 270.535 213.754 269.016 212.446 267.606C211.205 266.269 210.029 261.995 210.029 261.995L205.939 261.113C205.939 261.113 207.087 264.961 207.485 266.598C207.721 267.565 207.373 268.646 207.066 269.467C206.881 269.911 206.754 270.377 206.691 270.854Z" fill="#FFB27D"/>
<path d="M210.658 272.674C212.854 272.786 212.19 273.239 215.201 273.79C218.212 274.34 219.416 273.509 219.636 273.099C219.839 272.733 218.429 272.164 216.938 271.518L216.916 271.545C215.429 271.978 213.852 271.997 212.355 271.6C210.364 271.053 208.438 269.852 207.073 269.462C206.886 269.908 206.76 270.376 206.697 270.854C206.565 272.229 208.466 272.565 210.658 272.674Z" fill="#C65447"/>
<path d="M170.861 219.303C170.861 219.303 193.138 219.79 198.255 223.051C203.373 226.312 211.581 264.313 211.581 264.313C211.581 264.313 211.073 264.719 209.941 264.847C208.891 264.963 206.573 264.337 206.573 264.337C206.573 264.337 194.777 247.334 193.946 243.052C193.116 238.769 193.319 234.946 191.427 234.844C189.536 234.743 165.951 237.739 162.375 231.391C158.8 225.042 161.766 218.758 161.766 218.758L170.861 219.303Z" fill="#163560"/>
<path d="M197.337 271C197.211 272.376 199.109 272.711 201.305 272.829C203.501 272.947 202.839 273.393 205.847 273.944C208.856 274.495 210.065 273.664 210.282 273.253C210.486 272.888 209.078 272.319 207.585 271.675L207.022 271.427C205.344 270.681 204.401 269.162 203.093 267.752C201.853 266.417 200.675 262.14 200.675 262.14L196.585 261.259C196.585 261.259 197.733 265.107 198.134 266.744C198.367 267.709 198.022 268.79 197.713 269.613C197.528 270.057 197.401 270.523 197.337 271Z" fill="#FFB27D"/>
<path d="M201.305 272.829C203.501 272.941 202.839 273.394 205.848 273.944C208.856 274.495 210.065 273.664 210.283 273.254C210.486 272.888 209.078 272.319 207.585 271.675L207.562 271.699C206.076 272.134 204.499 272.153 203.003 271.754C201.01 271.208 199.086 270.007 197.721 269.619C197.536 270.064 197.409 270.531 197.345 271.009C197.211 272.384 199.109 272.719 201.305 272.829Z" fill="#C65447"/>
<path d="M161.68 219.302C161.68 219.302 185.828 220.456 190.815 223.918C195.803 227.38 202.54 265.672 202.54 265.672C202.54 265.672 202.018 266.062 200.882 266.141C199.828 266.214 197.536 265.499 197.536 265.499C197.536 265.499 186.405 248.045 185.739 243.732C185.072 239.419 185.424 235.606 183.536 235.433C181.649 235.261 157.971 237.325 154.649 230.842C151.327 224.359 161.68 219.302 161.68 219.302Z" fill="#1C468A"/>
<path d="M154.452 188.138C154.452 188.125 154.473 188.113 154.483 188.101C154.683 187.876 154.91 187.676 155.157 187.504C157.13 186.112 160.655 185.813 160.655 185.813C160.655 185.813 161.041 185.777 161.65 185.748C162.323 183.947 162.712 182.052 162.802 180.131L163.152 180.227L169.027 181.817C169.027 181.817 168.767 183.701 168.645 185.474C168.619 185.864 168.598 186.25 168.588 186.61C168.759 186.673 168.917 186.734 169.055 186.793C169.055 186.793 172.416 187.199 173.21 188.056C174.004 188.914 175.593 194.667 175.993 195.685L153.375 196.059C153.375 196.059 152.817 190.092 154.452 188.138Z" fill="#FFB27D"/>
<path d="M153.613 229.006C156.337 229.266 165.63 223.563 168.476 221.877C169.73 221.133 171.491 220.782 173.165 220.501C175.298 220.148 177.291 219.91 177.929 219.14C178.689 218.222 176.456 217.206 174.662 216.152C173.758 215.617 172.964 215.075 172.716 214.526C172.525 214.1 172.541 213.167 172.667 211.973C172.69 211.749 172.718 211.516 172.749 211.276C173.714 213.307 176.306 215.758 177.421 216.032C178.72 216.351 180.062 214.898 181.052 213.515C181.789 212.479 182.33 211.483 182.5 211.28C182.907 210.833 180.887 209.945 180.062 209.277C179.238 208.608 175.999 195.665 175.999 195.665C175.593 194.649 174.008 188.902 173.214 188.036C173.214 188.036 170.114 191.86 166.103 191.64C162.093 191.421 155.277 187.537 155.171 187.474L154.468 188.107C152.831 190.062 153.4 196.031 153.4 196.031C153.4 196.031 156.528 209.957 156.528 211.363C156.528 213.939 154.42 219.865 153.412 224.134C152.758 226.868 152.561 228.904 153.613 229.006Z" fill="#6BB7BF"/>
<path d="M169.037 181.814C169.037 181.814 168.777 183.697 168.655 185.47C165.33 185.151 163.779 181.962 163.17 180.213L169.037 181.814Z" fill="#F4A269"/>
<path d="M170.038 183.575C170.038 183.575 162.146 183.169 162.469 178.216C162.792 173.263 161.989 169.864 167.04 169.908C172.09 169.953 172.948 171.912 173.238 173.594C173.529 175.276 172.1 183.553 170.038 183.575Z" fill="#FFB27D"/>
<path d="M174.665 216.147C176.696 219.658 169.137 220.712 167.883 221.456C165.039 223.144 156.34 229.259 153.615 229.001C152.561 228.9 152.758 226.864 153.398 224.162C154.403 219.896 156.512 213.967 156.512 211.391C156.512 209.985 156.975 206.658 157.593 202.859L160.872 199.679C160.872 199.679 164.387 208.852 167.735 210.355C169.326 211.049 170.979 211.593 172.672 211.981C172.546 213.175 172.527 214.114 172.72 214.538C172.966 215.077 173.76 215.619 174.665 216.147Z" fill="#599DAD"/>
<path d="M159.44 190.883C159.44 190.883 156.853 186.836 154.143 190.096C151.433 193.357 156.069 216.68 160.086 217.876C164.555 219.209 177.436 217.673 177.436 217.673L177.188 215.642C177.188 215.642 163.466 212.984 162.897 212.245C162.329 211.505 160.864 191.26 159.44 190.883Z" fill="#FFB27D"/>
<path d="M170.37 171.674C170.37 171.674 168.485 171.231 167.867 172.157C167.249 173.084 167.692 173.602 166.317 173.986C164.941 174.37 164.472 174.347 164.61 175.319C164.748 176.29 163.227 177.015 163.162 177.793C163.097 178.571 162.463 178.961 161.858 179.012C161.252 179.063 161.528 168.978 163.867 168.533C166.205 168.088 168.462 168.616 169.149 169.173C169.836 169.73 170.37 171.674 170.37 171.674Z" fill="#1C468A"/>
<path d="M170.37 171.674C170.37 171.674 172.198 171.546 172.535 172.602C172.873 173.659 172.426 173.909 172.893 174.546C173.36 175.184 173.096 176.32 173.096 176.32C173.096 176.32 176.725 169.571 172.893 169.126C169.061 168.681 169.169 169.469 170.37 171.674Z" fill="#1C468A"/>
<path d="M169.256 213.949C169.256 213.949 168.517 220.796 164.775 221.578C161.033 222.36 155.706 218.634 153.993 206.544C152.28 194.454 152.207 188.337 156.171 188.642C160.135 188.946 161.683 192.551 161.583 196.847C161.477 201.317 162.126 207.913 163.942 209.106C165.758 210.299 169.256 213.949 169.256 213.949Z" fill="#6BB7BF"/>
<path d="M172.672 211.978C172.694 211.755 172.722 211.521 172.753 211.282C173.718 213.313 176.31 215.763 177.426 216.038C178.724 216.357 180.067 214.904 181.056 213.52C179.205 212.57 174.116 209.587 173.635 205.325C173.047 200.104 172.659 211.978 172.659 211.978H172.672Z" fill="#599DAD"/>
<path d="M176.069 215.51C176.069 215.51 180.538 214.636 181.04 214.853C181.542 215.071 184.353 217.62 184.065 218.128C183.776 218.636 182.625 219.002 181.328 218.565C180.032 218.128 177.221 217.911 176.717 217.257C176.213 216.603 176.069 215.51 176.069 215.51Z" fill="#FFB27D"/>
<path d="M177.452 218.729H176.408L183.386 202.125H184.43L177.452 218.729Z" fill="#D86713"/>
<path d="M176.995 218.729H203.881L210.86 202.125H183.971L176.995 218.729Z" fill="#F1A34F"/>
<path d="M168.519 219.264H203.67L203.881 218.729H168.519V219.264Z" fill="#D86713"/>
<path d="M317.376 219.264H134.392C133.573 219.271 132.791 219.601 132.215 220.183C131.639 220.765 131.317 221.552 131.318 222.37V291.926C131.317 292.744 131.639 293.53 132.215 294.112C132.791 294.694 133.574 295.024 134.392 295.03H317.376C318.195 295.024 318.978 294.694 319.554 294.112C320.13 293.531 320.453 292.745 320.452 291.926V222.364C320.452 221.546 320.129 220.761 319.552 220.181C318.976 219.6 318.194 219.27 317.376 219.264Z" fill="#9FC1F4"/>
<path d="M308.327 227.09H189.341C188.604 227.096 187.901 227.393 187.383 227.917C186.865 228.44 186.575 229.147 186.576 229.883V292.456C186.574 293.193 186.864 293.9 187.382 294.423C187.9 294.947 188.604 295.244 189.341 295.25H308.327C309.064 295.244 309.769 294.947 310.287 294.424C310.806 293.9 311.096 293.193 311.094 292.456V229.883C311.095 229.146 310.805 228.439 310.287 227.916C309.768 227.393 309.064 227.096 308.327 227.09Z" fill="#719DD3"/>
<path d="M203.471 271.673C203.471 271.673 199.436 274.704 198.648 274.517C197.859 274.33 201.597 271.244 201.597 271.244C200.192 270.562 195.822 270.99 195.822 270.99C195.822 270.99 194.822 274.741 194.103 274.367C193.384 273.993 195.149 271.226 195.149 271.226C193.583 271.13 191.661 272.305 191.661 272.305C189.032 274.403 191.834 277.705 191.834 277.705C191.361 278.906 190.606 279.976 189.633 280.825C189.633 280.825 187.262 282.597 187.098 285.762L187.529 285.801C187.529 285.801 188.211 282.853 189.451 281.457L189.654 281.254C189.857 281.065 189.997 280.923 190.092 280.817C190.702 280.208 191.561 279.454 191.974 279.381C191.958 279.314 191.952 279.246 191.955 279.178C191.955 279.245 191.955 279.314 191.974 279.381C192.114 281.051 195.32 282.507 197.29 282.808C199.261 283.109 198.654 282.288 197.975 281.073C197.297 279.858 195.145 279.316 194.653 278.757C194.162 278.198 195.178 278.196 196.366 278.745C197.555 279.293 197.717 280.754 199.617 281.676C201.516 282.599 204.391 279.403 204.391 279.403C202.871 279.326 200.704 277.66 200.781 277.15C200.858 276.64 204.464 278.03 205.08 278.097C205.695 278.164 207.097 277.39 207.314 274.883C207.532 272.376 203.471 271.673 203.471 271.673Z" fill="#82B378"/>
<path d="M182.035 273.554C182.035 273.554 186.495 271.033 184.414 267.61C184.414 267.61 182.748 265.509 180.961 264.969C180.961 264.969 181.911 270.072 180.961 270.192C180.01 270.312 180.306 264.428 180.306 264.428C180.306 264.428 175.611 262.147 173.769 262.328C173.769 262.328 176.68 267.311 175.729 267.191C174.778 267.071 171.51 262.027 171.51 262.027C171.51 262.027 166.695 261.127 165.923 264.008C165.151 266.888 166.398 268.331 167.111 268.512C167.824 268.693 172.393 268.632 172.282 269.231C172.17 269.83 169.072 270.793 167.349 270.247C167.349 270.247 169.25 274.988 171.747 274.749C174.244 274.509 175.016 272.949 176.562 272.827C178.108 272.705 179.236 273.128 178.464 273.548C177.692 273.969 175.075 273.686 173.828 274.767C172.58 275.848 171.569 276.5 173.887 276.981C176.205 277.463 180.365 277.16 181.2 275.356L182.035 273.554Z" fill="#A8D29F"/>
<path d="M183.224 277.936C182.485 276.591 182.077 275.088 182.035 273.554C180.613 268.991 168.127 264.91 168.127 264.91C183.998 271.392 181.204 275.356 181.204 275.356C181.631 275.608 182.273 276.809 182.718 277.731C182.781 277.887 182.882 278.105 183.031 278.399C183.091 278.534 183.14 278.641 183.173 278.718C183.985 280.783 183.557 284.35 183.557 284.35L184.052 284.484C185.149 280.89 183.224 277.936 183.224 277.936Z" fill="#82B378"/>
<path d="M189.128 270.076C189.128 270.076 183.252 266.752 185.995 262.242C185.995 262.242 188.189 259.471 190.537 258.76C190.537 258.76 189.284 265.487 190.537 265.645C191.791 265.804 191.401 258.047 191.401 258.047C191.401 258.047 197.589 255.04 200.019 255.278C200.019 255.278 196.179 261.846 197.433 261.688C198.686 261.529 202.997 254.882 202.997 254.882C202.997 254.882 210.746 252.558 211.764 256.357C212.781 260.156 209.732 263.191 208.793 263.429C207.855 263.666 201.821 263.587 201.977 264.377C202.134 265.168 206.203 265.718 208.478 265.007C208.478 265.007 205.978 271.976 202.686 271.659C199.395 271.342 198.377 269.286 196.34 269.127C194.302 268.969 192.815 269.534 193.833 270.076C194.85 270.618 198.302 270.259 199.944 271.671C201.585 273.083 202.922 273.954 199.867 274.588C196.811 275.222 191.334 274.826 190.229 272.451L189.128 270.076Z" fill="#A8D29F"/>
<path d="M207.463 258.681C207.463 258.681 191.007 264.063 189.127 270.076C189.127 270.076 189.207 272.768 187.561 275.854C187.561 275.854 184.737 279.944 186.184 284.681L187.122 284.307C187.122 284.307 186.551 279.606 187.63 276.884C187.673 276.782 187.738 276.64 187.817 276.463C188.02 276.075 188.146 275.789 188.223 275.582C188.81 274.363 189.645 272.782 190.218 272.451C190.224 272.451 186.543 267.228 207.463 258.681Z" fill="#82B378"/>
<path d="M188.93 294.758C195.287 294.758 200.441 289.553 200.441 283.131H177.419C177.419 289.553 182.573 294.758 188.93 294.758Z" fill="#F1A34F"/>
<path d="M191.762 294.669C191.291 294.728 190.816 294.758 190.34 294.758C183.984 294.758 178.829 289.553 178.829 283.131H181.69C181.676 285.951 182.692 288.679 184.546 290.803C186.401 292.927 188.967 294.302 191.762 294.669Z" fill="#FFB973"/>
<path d="M199.18 293.957H178.681C178.493 293.957 178.307 293.994 178.134 294.067C177.961 294.139 177.803 294.245 177.671 294.378C177.539 294.511 177.434 294.67 177.364 294.844C177.293 295.018 177.257 295.204 177.259 295.392H200.598C200.599 295.204 200.564 295.018 200.493 294.845C200.423 294.671 200.319 294.513 200.187 294.38C200.055 294.246 199.898 294.14 199.726 294.068C199.553 293.995 199.367 293.958 199.18 293.957Z" fill="#F1A34F"/>
<path d="M200.527 283.131H177.218C177.171 283.131 177.125 283.15 177.092 283.184C177.058 283.217 177.039 283.263 177.039 283.31C177.039 283.358 177.058 283.403 177.092 283.437C177.125 283.47 177.171 283.489 177.218 283.489H200.527C200.574 283.489 200.619 283.47 200.653 283.437C200.687 283.403 200.705 283.358 200.705 283.31C200.705 283.263 200.687 283.217 200.653 283.184C200.619 283.15 200.574 283.131 200.527 283.131Z" fill="#D86713"/>
<path d="M238.822 218.591H206.03L197.374 197.989H230.166L238.822 218.591Z" fill="#D86713"/>
<path d="M239.391 218.591H206.599L197.94 197.989H230.734L239.391 218.591Z" fill="#F1A34F"/>
<path d="M238.188 217.797H207.715L199.669 198.651H230.143L238.188 217.797Z" fill="#D0E0F7"/>
<path d="M249.907 219.254H206.292L206.03 218.592H249.907V219.254Z" fill="#D86713"/>
<path d="M267.645 177.669C267.769 177.294 267.837 176.902 267.848 176.507C267.996 171.534 269.118 168.23 264.079 167.787C259.041 167.344 258.003 169.209 257.554 170.859C257.105 172.509 257.745 180.893 259.788 181.117C260.322 181.131 260.856 181.115 261.387 181.07C261.432 181.616 261.509 182.563 261.59 183.605C261.755 185.596 261.948 187.931 261.997 188.467L267.569 188.189L270.515 184.485C270.515 184.485 268.478 181.976 267.645 177.669Z" fill="#E49963"/>
<path d="M278.489 241.798C277.388 243.645 276.162 245.415 274.822 247.097C270.787 252.241 266.395 256.483 265.631 260.493C265.457 261.365 265.219 262.222 264.92 263.059C264.601 263.977 264.207 264.944 263.75 265.942C262.039 269.698 259.483 273.908 256.922 277.725C252.503 284.34 248.348 289.858 248.348 289.858L240.728 289.531C241.033 288.759 244.356 279.627 248.803 268.467C250.607 263.935 252.527 259.122 254.38 254.469C254.626 253.848 254.874 253.23 255.118 252.619L256.785 248.432C260.96 237.953 264.286 229.609 264.286 229.609C264.286 229.609 280.972 223.224 282.705 227.362C284.133 230.775 282.969 234.123 278.489 241.798Z" fill="#163560"/>
<path d="M248.111 288.692C248.111 288.692 247.721 295.042 246.504 295.134C246.341 295.146 240.334 295.146 240.334 295.146L232.662 295.101C232.662 295.101 232.713 293.234 234.956 292.84C237.199 292.446 240.949 290.853 242.308 287.861C243.737 284.712 248.111 288.692 248.111 288.692Z" fill="#163560"/>
<path d="M265.757 270.32C265.757 270.32 271.058 273.761 270.544 274.879C270.475 275.027 267.545 280.327 267.545 280.327L263.768 287.068C263.768 287.068 262.18 286.115 262.931 283.946C263.683 281.776 264.136 277.69 262.21 275.033C260.183 272.238 265.757 270.32 265.757 270.32Z" fill="#163560"/>
<path d="M260.753 183.109C260.875 183.065 268.287 181.281 269.067 181.58C269.847 181.878 270.235 183.459 270.235 183.459L258.155 185.559C258.155 185.559 259.193 183.678 260.753 183.109Z" fill="#C65447"/>
<path d="M258.303 170.422C258.303 170.422 260.255 175.926 261.35 175.375C262.445 174.825 263.439 174.36 263.711 176.109C263.983 177.858 262.899 180.237 266.527 179.595C270.155 178.953 272.861 168.34 271.429 166.845C267.293 162.536 252.629 165.333 258.303 170.422Z" fill="#163560"/>
<path d="M258.291 226.774C258.291 226.774 237.64 239.764 235.302 248.62C232.963 257.476 263.163 276.368 263.163 276.368C263.163 276.368 266.475 273.416 267.06 271.252C267.06 271.252 253.409 254.733 250.447 251.03C248.619 248.754 277.335 243.157 280.844 237.647C284.353 232.138 283.095 227.5 283.095 227.5L258.291 226.774Z" fill="#1C468A"/>
<path d="M231.393 216.602C231.393 216.602 228.884 214.217 227.689 214.469C226.495 214.721 224.01 216.34 223.626 216.801C223.242 217.263 222.874 218.02 223.876 218.197C224.877 218.374 224.93 218.4 224.93 218.4C224.93 218.4 226.962 217.718 227.352 217.837C227.742 217.957 229.071 219.296 230.158 218.691C231.245 218.085 231.393 216.602 231.393 216.602Z" fill="#E49963"/>
<path d="M283.095 227.5C281.1 229.881 264.136 229.259 259.165 227.252C258.853 227.135 258.559 226.975 258.291 226.777C255.37 224.414 261.964 222.34 254.59 204.34C254.589 204.331 254.589 204.322 254.59 204.313C249.954 190.99 256.057 187.12 258.198 185.155C258.198 185.155 268.559 181.976 274.207 183.733C281.535 186.039 285.238 224.942 283.095 227.5Z" fill="#C65447"/>
<path d="M265.256 218.667C264.92 221.117 262.97 227.163 259.161 227.252C258.849 227.135 258.555 226.975 258.287 226.777C255.366 224.414 261.96 222.34 254.586 204.34C254.584 204.331 254.584 204.322 254.586 204.313C255.819 203.458 257.816 202.485 259.114 203.972C261.099 206.245 265.601 216.129 265.256 218.667Z" fill="#A03732"/>
<path d="M258.155 185.56C258.155 185.56 255.073 187.226 252.873 192.644C250.608 198.247 247.591 210.808 246.778 211.355C245.965 211.901 233.512 213.882 229.808 215.337C229.808 215.337 228.353 217.978 229.729 219.059C231.104 220.139 247.763 219.548 248.771 219.284C257.182 217.084 261.601 200.323 262.604 197.749C263.608 195.175 258.155 185.56 258.155 185.56Z" fill="#C65447"/>
<path d="M279.273 288.856V279.982H288.245C288.414 279.981 288.576 279.913 288.695 279.792C288.815 279.672 288.881 279.509 288.881 279.34V276.927C288.881 276.757 288.815 276.594 288.695 276.474C288.576 276.354 288.414 276.286 288.245 276.285H279.273V247.686C279.274 247.236 279.098 246.804 278.781 246.484C278.465 246.165 278.035 245.983 277.585 245.979H275.771C275.321 245.983 274.891 246.165 274.575 246.484C274.258 246.804 274.082 247.236 274.083 247.686V276.283H265.111C264.942 276.284 264.78 276.352 264.661 276.472C264.541 276.592 264.475 276.755 264.475 276.925V279.338C264.475 279.507 264.541 279.67 264.661 279.79C264.78 279.911 264.942 279.979 265.111 279.98H274.087V288.854C267.462 289.36 261.796 292.031 260.306 295.152H292.702C291.209 292.033 285.9 289.362 279.273 288.856Z" fill="#163560"/>
<path d="M298.11 243.509H255.244C254.829 243.512 254.432 243.679 254.14 243.973C253.848 244.268 253.684 244.667 253.686 245.081V253.742C253.684 254.157 253.848 254.556 254.14 254.851C254.432 255.146 254.829 255.313 255.244 255.317H298.11C298.526 255.313 298.922 255.146 299.214 254.851C299.506 254.556 299.67 254.157 299.669 253.742V245.081C299.67 244.667 299.506 244.268 299.214 243.973C298.922 243.679 298.525 243.512 298.11 243.509Z" fill="#F1A34F"/>
<path d="M353.806 183.439C350.848 179.946 343.181 172.374 335.272 171.452L342.098 184.885C342.098 184.885 342.482 187.189 344.504 188.53C349.455 191.817 355.751 193.269 355.751 193.269C355.751 193.269 360.017 191.39 365.842 187.077C367.67 185.722 370.886 180.558 370.886 180.558L370.019 177.628C370.019 177.628 364.562 180.71 362.611 181.598C361.5 182.106 358.942 183.315 357.14 184.17C356.582 184.433 355.952 184.504 355.349 184.372C354.746 184.24 354.203 183.912 353.806 183.439Z" fill="#2B478B"/>
<path d="M370.019 177.628C370.019 177.628 371.191 173.362 375.835 173.971C376.368 174.14 377.926 174.768 376.93 176.452C376.197 177.693 375.878 177.061 374.724 178.721C373.57 180.381 372.317 180.765 370.886 180.566L370.019 177.628Z" fill="#E49963"/>
<path d="M372.29 167.712L379.642 170.168L378.165 171.41L384.526 178.136L390.103 173.301L412.361 191.724L412.164 191.726H406.62L390.158 178.1L384.278 183.199L375.364 173.77L373.769 175.111L372.29 167.712Z" fill="#699DEE"/>
<path d="M372.347 213.64C371.872 206.386 377.257 200.077 384.376 199.555C391.495 199.033 397.653 204.488 398.128 211.745C398.603 219.002 393.218 225.308 386.099 225.83C378.98 226.352 372.822 220.897 372.347 213.64Z" fill="#E2810E"/>
<path d="M370.994 212.96C370.518 205.705 375.904 199.399 383.023 198.875C390.142 198.35 396.299 203.809 396.775 211.064C397.25 218.319 391.864 224.627 384.746 225.151C377.627 225.675 371.465 220.21 370.994 212.96Z" fill="#FFB93E"/>
<path d="M384.674 224.138C383.131 224.255 381.579 224.059 380.113 223.561C378.646 223.064 377.296 222.275 376.142 221.243C373.775 219.142 372.339 216.189 372.148 213.031C371.93 209.859 372.966 206.729 375.033 204.313C376.037 203.124 377.268 202.147 378.655 201.441C380.042 200.734 381.556 200.311 383.108 200.197C384.652 200.081 386.204 200.277 387.67 200.774C389.136 201.272 390.487 202.06 391.641 203.092C394.009 205.192 395.446 208.145 395.637 211.304C395.855 214.476 394.819 217.606 392.752 220.022C391.748 221.211 390.516 222.188 389.129 222.895C387.742 223.602 386.227 224.024 384.674 224.138ZM383.153 200.91C381.694 201.016 380.27 201.411 378.966 202.074C377.662 202.737 376.504 203.654 375.559 204.77C373.615 207.042 372.641 209.986 372.847 212.968C373.027 215.937 374.378 218.714 376.603 220.688C377.689 221.658 378.959 222.399 380.338 222.867C381.717 223.335 383.176 223.52 384.628 223.41C386.088 223.303 387.511 222.905 388.815 222.24C390.119 221.575 391.278 220.657 392.222 219.538C394.165 217.267 395.139 214.323 394.934 211.341C394.754 208.371 393.403 205.594 391.178 203.62C390.091 202.652 388.821 201.912 387.442 201.447C386.063 200.981 384.604 200.799 383.153 200.91Z" fill="#FFA412"/>
<path d="M385.735 215.524C385.75 215.29 385.725 215.055 385.662 214.829C385.596 214.622 385.484 214.432 385.335 214.275C385.156 214.087 384.951 213.926 384.725 213.797C384.428 213.626 384.117 213.478 383.797 213.354C383.167 213.094 382.597 212.823 382.086 212.542C381.613 212.291 381.175 211.977 380.786 211.609C380.436 211.271 380.159 210.864 379.973 210.414C379.622 209.432 379.665 208.352 380.091 207.4C380.293 206.979 380.58 206.606 380.934 206.303C381.308 205.986 381.735 205.739 382.196 205.573C382.715 205.388 383.259 205.283 383.809 205.262L383.911 203.273L385.481 203.347L385.38 205.364C385.908 205.455 386.417 205.634 386.887 205.892C387.32 206.132 387.702 206.454 388.01 206.841C388.319 207.237 388.548 207.689 388.685 208.172C388.838 208.722 388.898 209.294 388.862 209.864L386.017 209.73C386.055 208.986 385.92 208.422 385.611 208.038C385.458 207.847 385.264 207.694 385.043 207.589C384.823 207.483 384.582 207.428 384.337 207.428C384.079 207.409 383.819 207.439 383.571 207.517C383.369 207.581 383.183 207.691 383.029 207.836C382.882 207.977 382.769 208.148 382.698 208.338C382.621 208.542 382.577 208.757 382.568 208.974C382.554 209.186 382.576 209.398 382.635 209.602C382.696 209.801 382.803 209.984 382.948 210.134C383.127 210.322 383.332 210.483 383.557 210.612C383.868 210.79 384.19 210.949 384.52 211.089C385.145 211.36 385.71 211.635 386.217 211.916C386.689 212.169 387.124 212.485 387.511 212.856C387.862 213.195 388.138 213.604 388.323 214.055C388.516 214.557 388.595 215.095 388.555 215.632C388.537 216.136 388.417 216.632 388.201 217.088C387.998 217.506 387.71 217.876 387.354 218.175C386.978 218.487 386.547 218.726 386.082 218.88C385.558 219.057 385.01 219.157 384.457 219.177L384.364 221.028L382.803 220.954L382.897 219.112C382.362 219.034 381.839 218.887 381.341 218.677C380.853 218.473 380.409 218.179 380.03 217.81C379.644 217.42 379.345 216.953 379.155 216.438C378.944 215.823 378.863 215.171 378.917 214.522L381.761 214.656C381.731 215.032 381.774 215.409 381.887 215.768C381.978 216.043 382.133 216.293 382.338 216.497C382.529 216.682 382.759 216.821 383.011 216.903C383.265 216.986 383.528 217.034 383.795 217.048C384.069 217.065 384.343 217.037 384.608 216.964C384.829 216.904 385.037 216.8 385.217 216.658C385.379 216.525 385.509 216.357 385.595 216.166C385.683 215.963 385.731 215.745 385.735 215.524Z" fill="#FFA412"/>
<path d="M340.654 217.082L340.52 225.243C340.515 225.454 340.553 225.664 340.631 225.86C340.71 226.056 340.827 226.234 340.976 226.383C341.125 226.533 341.303 226.651 341.498 226.73C341.694 226.809 341.903 226.848 342.114 226.844C343.344 226.813 345.054 226.614 346.432 225.854C346.432 225.854 344.776 227.293 341.586 227.317C341.308 227.318 341.033 227.26 340.779 227.146C340.525 227.032 340.298 226.865 340.114 226.656C339.93 226.448 339.792 226.202 339.711 225.936C339.63 225.669 339.606 225.389 339.642 225.113L340.654 217.082Z" fill="#233862"/>
<path d="M328.619 219.843L327.272 227.142C327.178 227.668 326.891 228.14 326.467 228.465C326.043 228.791 325.513 228.945 324.98 228.9L320.669 228.518L324.48 229.924C324.845 230.056 325.235 230.103 325.621 230.061C326.007 230.019 326.378 229.888 326.705 229.68C327.032 229.472 327.307 229.191 327.509 228.859C327.71 228.528 327.833 228.155 327.867 227.768L328.619 219.843Z" fill="#233862"/>
<path opacity="0.2" d="M401.023 59.5032H160.441V295.146H401.023V59.5032Z" fill="white"/>
<path opacity="0.3" d="M401.025 107.414V76.1055L189.43 295.146H219.672L401.025 107.414Z" fill="white"/>
<path opacity="0.3" d="M401.025 180.416V147.207L258.114 295.146H290.193L401.025 180.416Z" fill="white"/>
<path opacity="0.3" d="M314.164 59.5032L160.441 218.634V295.146H173.214L400.848 59.5032H314.164Z" fill="white"/>
<path opacity="0.3" d="M294.719 295.146H401.025V185.101L294.719 295.146Z" fill="white"/>
<path opacity="0.3" d="M245.764 59.5032H160.441V147.829L245.764 59.5032Z" fill="white"/>
<path d="M281.195 59.5032H280.271V295.146H281.195V59.5032Z" fill="#73A8DD"/>
<path d="M391.484 136.245C391.484 136.245 390.55 131.753 388.209 130.723C385.869 129.693 384.467 125.577 383.537 126.7C382.606 127.824 383.819 135.308 385.597 136.249C387.374 137.189 388.216 138.15 388.216 138.15L391.484 136.245Z" fill="#9C5F33"/>
<path d="M431.643 118.369C431.643 118.369 416.731 144.373 411.327 149.164L391.49 134.376C391.49 134.376 388.614 135.257 387.352 138.146C387.352 138.146 399.397 162.688 411.258 163.728C423.118 164.768 439.763 134.313 439.763 134.313L431.643 118.369Z" fill="#E58638"/>
<path d="M477.789 279.293C477.789 279.293 481.243 282.489 480.564 284.758C479.885 287.028 476.781 288.543 476.359 291.318C475.936 294.094 474.258 295.607 472.744 295.607H465.528C465.528 295.607 464.413 293.653 467.105 293.066C469.796 292.478 470.81 289.216 470.642 286.189C470.473 283.161 470.894 279.125 470.894 279.125L476.612 277.78L477.789 279.293Z" fill="#233862"/>
<path d="M434.82 295.489C434.656 295.558 434.484 295.604 434.308 295.627H415.282C415.429 294.963 416.016 293.596 418.342 293.218C421.357 292.728 426.58 290.983 427.744 287.123C427.781 286.999 427.815 286.873 427.844 286.745C428.77 282.623 435.497 288.005 435.497 288.005C435.497 288.005 435.517 288.169 435.546 288.45C435.698 289.961 436.098 294.849 434.82 295.489Z" fill="#233862"/>
<path d="M419.143 185.284C419.143 185.284 420.158 198.03 421.365 213.352C422.99 234.168 424.961 259.733 425.154 264.577C425.489 272.987 426.836 286.441 426.836 286.441C426.836 286.441 430.03 289.636 436.423 288.289C436.423 288.289 442.112 269.085 443.747 248.765C443.772 248.434 443.796 248.096 443.822 247.761C445.336 227.075 447.682 183.518 447.682 183.518L419.143 185.284Z" fill="#2B478B"/>
<path d="M419.143 185.284C419.143 185.284 420.158 198.03 421.365 213.352L443.747 248.765C443.772 248.434 443.796 248.096 443.822 247.761C445.336 227.075 447.682 183.518 447.682 183.518L419.143 185.284Z" fill="#233862"/>
<path d="M423.815 186.797C423.815 186.797 442.23 232.961 454.338 254.652C466.446 276.344 470.231 282.4 470.231 282.4C470.231 282.4 477.169 279.627 477.799 277.727C477.799 277.727 473.169 235.846 465.059 225.635C460.478 219.867 455.104 202.554 454.844 196.5C454.584 190.446 453.204 178.463 453.204 178.463L423.815 186.797Z" fill="#2B478B"/>
<path d="M433.25 115.539C432.437 110.704 432.405 107.839 432.405 107.839L441.75 100.308C441.405 110.669 448.038 115.642 448.038 115.642C448.038 115.642 435.588 121.77 428.39 119.502C429.754 117.895 431.401 116.551 433.25 115.539Z" fill="#9C5F33"/>
<path d="M430.205 107.66C430.205 107.66 442.091 109.635 443.207 102.213C444.322 94.792 446.608 90.0482 439.066 88.4737C431.525 86.8993 429.622 89.5099 428.646 91.895C427.671 94.28 427.141 106.963 430.205 107.66Z" fill="#AB7041"/>
<path d="M418.344 186.346C418.555 186.528 418.823 186.63 419.102 186.632C421.804 186.596 429.684 188.097 436.352 187.412C441.974 186.874 446.949 185.208 452.29 182.813C453.001 182.496 454.632 181.624 454.596 180.83C454.573 179.963 454.486 178.703 454.378 177.116C454.001 171.603 453.34 162.117 453.984 151.173C454.098 149.141 454.159 147.11 454.167 145.125C454.222 130.294 451.28 117.247 445.372 112.833C444.867 112.471 441.768 113.984 438.92 115.39C436.289 116.686 433.658 116.831 431.174 116.327L428.691 118.525C425.664 121.335 422.348 125.156 420.908 130.956C419.689 135.893 418.962 144.796 418.565 154.021C418.385 158.2 418.24 162.418 418.204 166.414V166.556C418.169 166.952 418.169 167.387 418.169 167.775C418.019 178.057 418.165 186.2 418.344 186.346Z" fill="#EE9849"/>
<path d="M454.379 177.117C454.001 171.603 453.34 162.117 453.984 151.173C454.098 149.141 454.159 147.11 454.167 145.125C451.705 139.152 449.698 134.823 449.698 134.823H443.491C443.491 134.823 438.938 165.894 454.379 177.117Z" fill="#E58638"/>
<path d="M495.039 204.807L493.387 193.205C493.144 191.54 492.253 190.039 490.907 189.029C489.562 188.02 487.872 187.583 486.206 187.815L477.11 189.111L476.757 186.636C476.678 186.087 476.384 185.591 475.94 185.258C475.496 184.925 474.938 184.781 474.388 184.859L466.483 185.984C465.933 186.064 465.438 186.359 465.104 186.803C464.771 187.247 464.627 187.805 464.703 188.355L465.057 190.83L459.789 191.579C459.586 191.61 459.372 191.65 459.179 191.699L456.288 192.106C454.63 192.347 453.134 193.234 452.128 194.575C451.122 195.915 450.687 197.599 450.919 199.259L452.544 210.727C452.786 212.386 453.674 213.882 455.014 214.888C456.355 215.895 458.039 216.33 459.699 216.099L461.861 215.79C462.318 215.826 462.778 215.811 463.232 215.745L489.643 211.983C491.308 211.741 492.809 210.852 493.82 209.507C494.831 208.163 495.269 206.473 495.039 204.807ZM466.668 187.285L474.573 186.159C474.65 186.147 474.729 186.147 474.806 186.159C474.971 186.186 475.123 186.264 475.24 186.383C475.357 186.503 475.433 186.656 475.456 186.821L475.81 189.294L466.357 190.641L466.003 188.168C465.976 187.963 466.03 187.755 466.154 187.59C466.278 187.424 466.463 187.315 466.668 187.285Z" fill="#233862"/>
<path d="M466.45 179.048L467.629 181.08C467.629 181.08 465.321 185.968 470.796 187.784C470.796 187.784 473.151 188.379 473.352 186.746C473.553 185.112 473.205 185.756 473.555 183.451C473.904 181.145 472.996 179.093 471.298 178.544L469.955 177.258L466.45 179.048Z" fill="#AB7041"/>
<path d="M469.573 179.603C468.036 179.868 466.474 179.956 464.917 179.863C464.917 179.863 458.283 159.37 457.43 157.499C456.577 155.628 437.724 133.469 437.724 133.469L445.576 113.818C445.576 113.818 465.967 147.886 468.037 152.66C471.458 160.567 472.645 178.297 472.645 178.297C471.717 178.93 470.673 179.374 469.573 179.603Z" fill="#EE9849"/>
<path d="M443.217 101.507C443.217 101.507 441.998 101.303 442.201 99.6232C442.404 97.9431 442.404 95.7469 441.029 96.1573C439.654 96.5677 439.597 97.6587 439.034 97.0207C438.471 96.3828 438.463 93.691 434.398 93.504C430.333 93.3171 428.683 94.723 426.792 93.9002C424.9 93.0774 424.803 90.2088 424.803 90.2088C424.803 90.2088 425.341 91.2246 426.152 91.5557C426.152 91.5557 422.999 87.2427 426.649 84.2847C430.3 81.3267 434.022 83.2689 436.137 83.3908C440.791 83.6731 443.798 83.9515 445.318 87.0111C446.837 90.0706 446.204 98.5627 443.217 101.507Z" fill="#2B478B"/>
<path d="M390.7 132.299L385.855 122.491C385.81 122.399 385.73 122.329 385.633 122.296C385.537 122.263 385.431 122.269 385.339 122.314L382.647 123.641C382.556 123.687 382.487 123.766 382.454 123.863C382.421 123.959 382.428 124.065 382.472 124.157L387.307 133.967C387.353 134.058 387.433 134.128 387.53 134.16C387.626 134.193 387.732 134.187 387.824 134.142L390.515 132.815C390.608 132.771 390.68 132.692 390.715 132.596C390.749 132.499 390.744 132.392 390.7 132.299Z" fill="#2B478B"/>
<path d="M388.185 133.638L383.269 123.663C383.234 123.594 383.173 123.54 383.099 123.515C383.025 123.49 382.945 123.495 382.875 123.529L381.298 124.307C381.229 124.342 381.175 124.402 381.15 124.476C381.125 124.549 381.13 124.629 381.164 124.699L386.08 134.674C386.115 134.744 386.176 134.797 386.25 134.822C386.324 134.847 386.404 134.842 386.475 134.808L388.051 134.03C388.121 133.996 388.174 133.935 388.199 133.862C388.224 133.788 388.219 133.708 388.185 133.638Z" fill="#233862"/>
<path d="M271.667 201.839C273.967 201.839 275.832 199.974 275.832 197.674C275.832 195.374 273.967 193.509 271.667 193.509C269.367 193.509 267.502 195.374 267.502 197.674C267.502 199.974 269.367 201.839 271.667 201.839Z" fill="#233862"/>
<path d="M271.667 252.324C273.967 252.324 275.832 250.459 275.832 248.159C275.832 245.859 273.967 243.994 271.667 243.994C269.367 243.994 267.502 245.859 267.502 248.159C267.502 250.459 269.367 252.324 271.667 252.324Z" fill="#233862"/>
<path d="M271.667 248.619C271.157 248.618 270.668 248.415 270.308 248.054C269.948 247.694 269.745 247.205 269.745 246.695V198.775C269.745 198.266 269.948 197.777 270.308 197.416C270.668 197.056 271.157 196.854 271.667 196.854C271.92 196.853 272.17 196.903 272.403 196.999C272.637 197.096 272.849 197.237 273.027 197.416C273.206 197.594 273.348 197.806 273.444 198.039C273.541 198.273 273.591 198.523 273.591 198.775V246.695C273.591 247.205 273.388 247.694 273.027 248.055C272.667 248.416 272.177 248.619 271.667 248.619Z" fill="#2B478B"/>
<path d="M289.951 201.839C292.252 201.839 294.116 199.974 294.116 197.674C294.116 195.374 292.252 193.509 289.951 193.509C287.651 193.509 285.787 195.374 285.787 197.674C285.787 199.974 287.651 201.839 289.951 201.839Z" fill="#233862"/>
<path d="M289.951 252.324C292.252 252.324 294.116 250.459 294.116 248.159C294.116 245.859 292.252 243.994 289.951 243.994C287.651 243.994 285.787 245.859 285.787 248.159C285.787 250.459 287.651 252.324 289.951 252.324Z" fill="#233862"/>
<path d="M289.951 248.619C289.441 248.618 288.952 248.415 288.592 248.054C288.232 247.694 288.029 247.205 288.029 246.695V198.775C288.029 198.266 288.232 197.777 288.592 197.416C288.953 197.056 289.441 196.854 289.951 196.854C290.204 196.853 290.454 196.903 290.687 196.999C290.921 197.096 291.133 197.237 291.311 197.416C291.49 197.594 291.632 197.806 291.729 198.039C291.825 198.273 291.875 198.523 291.875 198.775V246.695C291.875 247.205 291.672 247.694 291.312 248.055C290.951 248.416 290.461 248.619 289.951 248.619Z" fill="#2B478B"/>
<path d="M524.418 295.191H0.595256C0.266504 295.191 0 295.457 0 295.786V295.987C0 296.316 0.266504 296.582 0.595256 296.582H524.418C524.746 296.582 525.013 296.316 525.013 295.987V295.786C525.013 295.457 524.746 295.191 524.418 295.191Z" fill="#2E3552"/>
</svg>
